<svg width="300" height="300" viewBox="0 0 300 300" fill="none" xmlns="http://www.w3.org/2000/svg">
<path d="M203.565 230.846H95.4163C91.906 230.846 89.0644 227.995 89.0644 224.473V194.201C89.0644 190.679 91.906 187.828 95.4163 187.828H203.482C206.992 187.828 209.834 190.679 209.834 194.201V224.473C209.917 227.995 207.076 230.846 203.565 230.846Z" fill="#8E4DF4"/>
<path d="M218.609 157.137L162.445 213.488C155.341 220.616 143.724 220.616 136.62 213.488L80.4559 157.137C73.3519 150.009 73.3519 138.353 80.4559 131.226L136.62 74.8744C143.724 67.7467 155.341 67.7467 162.445 74.8744L218.609 131.226C225.797 138.353 225.797 149.925 218.609 157.137Z" fill="#F25252"/>
</svg>
